<svg version="1.2" xmlns="http://www.w3.org/2000/svg" viewBox="0 0 1226 227" width="1226" height="227">
	<title>leboncoin-svg</title>
	<style>
		.s0 { fill: #ff6e14 } 
	</style>
	<g id="Logo_Web">
		<path id="Logo_Lbc" fill-rule="evenodd" class="s0" d="m324.2 76.1c36.7 0 60.9 31.7 61.5 74.4 0 43.4-25.4 75.5-62.6 75.5-18.7 0.5-36.2-8.9-46.3-24.8h-0.6v22.1h-40.3v-193.3c0-14.7 9.8-23.9 21.4-23.9 11.6 0 21.4 9.2 21.4 23.9v68.9h0.6c10.4-14.4 27.1-22.9 44.9-22.8zm16.7 75c0-21-13.9-38.1-31.1-38.1-17.2 0-31.1 17.1-31.1 38.1 0 21 13.9 38 31.1 38 17.2 0 31.1-17 31.1-38zm131.7-75c45.5 0 74.9 31.2 74.9 75 0 43.9-29.4 75-74.9 75-45.5 0-74.8-31.1-74.8-75 0-43.8 29.3-75 74.8-75zm31.1 75c0-21-13.9-38.1-31.1-38.1-17.2 0-31.1 17.1-31.1 38.1 0 21 13.9 38 31.1 38 17.2 0 31.1-17 31.1-38zm540.3-75c11.8 0 21.6 9.3 21.8 24v123.2h-43.2v-123.2c0-14.7 9.6-24 21.4-24zm0-75.2c14.5 0 26.2 11.7 26.2 26.2 0 14.5-11.7 26.3-26.2 26.3-14.4 0-26.2-11.8-26.2-26.3 0-14.5 11.8-26.2 26.2-26.2zm135 75.2c30 0 46.1 21.4 46.1 53.7v93.5h-43.2v-81.4c0-19.1-8.9-25.4-20.2-25.4-16.6 0-29.3 14.1-29.3 44.1v62.7h-43.2v-124.6c0-14.1 9.3-22.4 20.2-22.4 10.9 0 20.1 8.3 20.1 22.4v5.4h0.6c10.2-17.3 28.8-27.9 48.9-28zm-249.6 0c45.5 0 74.9 31.2 74.9 75 0 43.9-29.4 75-74.9 75-45.5 0-74.8-31.1-74.8-75 0-43.8 29.4-75 74.8-75zm31.2 75c0-21-13.9-38.1-31.1-38.1-17.2 0-31.1 17.1-31.1 38.1 0 21 13.9 38 31.1 38 17.2 0 31.1-17 31.1-38zm-169.9-37.5c-18.7 0-30.2 13.9-30.2 37.5 0 23.7 11.5 37.5 30.2 37.5 10.7 0.5 20.8-5.1 26.2-14.4h0.6l31.3 20.2c-10.9 21.3-33.7 31.7-59.5 31.7-45 0-72.6-31.1-72.6-75 0-43.8 27.6-75 72.6-75 25.8 0 48.8 10.3 59.5 31.8l-31.3 20.1h-0.6c-5.4-9.3-15.5-14.8-26.2-14.4zm-136.1-37.5c29.9 0 46 21.4 46.1 53.7v93.5h-43.1v-81.4c0-19.1-9-25.4-20.2-25.4-16.7 0-29.4 14.1-29.4 44.1v62.7h-43.2v-124.7c0-14.1 9.1-22.3 20.1-22.3 10.9 0 20.1 8.3 20.1 22.4v5.4h0.6c10.3-17.3 28.9-28 49-28zm-494.2 114.7c15.6-0.9 29.6-10 36.8-23.8l28.4 20.5c-10.9 22.2-33 38.5-70.4 38.5-17.7 0-34.8-6.5-48.2-18.2-18.8 12.6-34.8 17.9-50.9 17.9-32.3 0-55.2-21.7-55.2-54.2v-141.8c0-14.7 9.8-23.9 21.4-23.9 11.7 0 21.4 9.2 21.4 23.9v138.2c0 13.9 6.1 21.4 18.9 21.4 7 0 14.5-4 24.3-9.4-4.7-11.1-7.1-23.1-7-35.2 0-30.5 21.8-68.6 67.5-68.6 39.6 0 60.9 23.1 69.8 52.1l-76.3 54.8c5.2 5.1 12.2 7.8 19.5 7.8zm-41.9-48.2c0.2 5.4 1.1 10.9 2.9 16.1l48.2-35.7c-4.4-8.1-12.9-13-22.1-12.6-13.6 0-29 10.3-29 32.2z"/>
	</g>
</svg>